HIERARCHY
ROOT Hips
{
	OFFSET 0.00000 0.00000 0.00000
	CHANNELS 6 Xposition Yposition Zposition Zrotation Yrotation Xrotation 
	JOINT LHipJoint
	{
		OFFSET 0 0 0
		CHANNELS 3 Zrotation Yrotation Xrotation
		JOINT LeftUpLeg
		{
			OFFSET 1.58161 -1.81893 0.78828
			CHANNELS 3 Zrotation Yrotation Xrotation
			JOINT LeftLeg
			{
				OFFSET 2.53374 -6.96141 0.00000
				CHANNELS 3 Zrotation Yrotation Xrotation
				JOINT LeftFoot
				{
					OFFSET 2.63509 -7.23986 0.00000
					CHANNELS 3 Zrotation Yrotation Xrotation
					JOINT LeftToeBase
					{
						OFFSET 0.14115 -0.38781 2.05350
						CHANNELS 3 Zrotation Yrotation Xrotation
						End Site
						{
							OFFSET 0.00000 -0.00000 1.05543
						}
					}
				}
			}
		}
	}
	JOINT RHipJoint
	{
		OFFSET 0 0 0
		CHANNELS 3 Zrotation Yrotation Xrotation
		JOINT RightUpLeg
		{
			OFFSET -1.11138 -1.81893 0.78828
			CHANNELS 3 Zrotation Yrotation Xrotation
			JOINT RightLeg
			{
				OFFSET -2.58392 -7.09926 0.00000
				CHANNELS 3 Zrotation Yrotation Xrotation
				JOINT RightFoot
				{
					OFFSET -2.66423 -7.31992 0.00000
					CHANNELS 3 Zrotation Yrotation Xrotation
					JOINT RightToeBase
					{
						OFFSET -0.18831 -0.51739 2.12114
						CHANNELS 3 Zrotation Yrotation Xrotation
						End Site
						{
							OFFSET -0.00000 -0.00000 1.09845
						}
					}
				}
			}
		}
	}
	JOINT LowerBack
	{
		OFFSET 0 0 0
		CHANNELS 3 Zrotation Yrotation Xrotation
		JOINT Spine
		{
			OFFSET -0.01511 1.97958 -0.08829
			CHANNELS 3 Zrotation Yrotation Xrotation
			JOINT Spine1
			{
				OFFSET 0.08344 1.97334 -0.04330
				CHANNELS 3 Zrotation Yrotation Xrotation
				JOINT Neck
				{
					OFFSET 0 0 0
					CHANNELS 3 Zrotation Yrotation Xrotation
					JOINT Neck1
					{
						OFFSET 0.00559 1.76246 0.31246
						CHANNELS 3 Zrotation Yrotation Xrotation
						JOINT Head
						{
							OFFSET -0.07011 1.80354 -0.30524
							CHANNELS 3 Zrotation Yrotation Xrotation
							End Site
							{
								OFFSET -0.02385 1.83547 -0.13906
							}
						}
					}
				}
				JOINT LeftShoulder
				{
					OFFSET 0 0 0
					CHANNELS 3 Zrotation Yrotation Xrotation
					JOINT LeftArm
					{
						OFFSET 3.20667 1.30156 -0.60240
						CHANNELS 3 Zrotation Yrotation Xrotation
						JOINT LeftForeArm
						{
							OFFSET 4.95663 -0.00000 0.00000
							CHANNELS 3 Zrotation Yrotation Xrotation
							JOINT LeftHand
							{
								OFFSET 3.38177 -0.00000 0.00000
								CHANNELS 3 Zrotation Yrotation Xrotation
								JOINT LeftFingerBase
								{
									OFFSET 0 0 0
									CHANNELS 3 Zrotation Yrotation Xrotation
									JOINT LeftHandIndex1
									{
										OFFSET 0.66291 -0.00000 0.00000
										CHANNELS 3 Zrotation Yrotation Xrotation
										End Site
										{
											OFFSET 0.53445 -0.00000 0.00000
										}
									}
								}
								JOINT LThumb
								{
									OFFSET 0 0 0
									CHANNELS 3 Zrotation Yrotation Xrotation
									End Site
									{
										OFFSET 0.54261 -0.00000 0.54261
									}
								}
							}
						}
					}
				}
				JOINT RightShoulder
				{
					OFFSET 0 0 0
					CHANNELS 3 Zrotation Yrotation Xrotation
					JOINT RightArm
					{
						OFFSET -3.06877 1.34672 -0.60964
						CHANNELS 3 Zrotation Yrotation Xrotation
						JOINT RightForeArm
						{
							OFFSET -5.08365 -0.00000 0.00000
							CHANNELS 3 Zrotation Yrotation Xrotation
							JOINT RightHand
							{
								OFFSET -3.35984 -0.00000 0.00000
								CHANNELS 3 Zrotation Yrotation Xrotation
								JOINT RightFingerBase
								{
									OFFSET 0 0 0
									CHANNELS 3 Zrotation Yrotation Xrotation
									JOINT RightHandIndex1
									{
										OFFSET -0.82076 -0.00000 0.00000
										CHANNELS 3 Zrotation Yrotation Xrotation
										End Site
										{
											OFFSET -0.66172 -0.00000 0.00000
										}
									}
								}
								JOINT RThumb
								{
									OFFSET 0 0 0
									CHANNELS 3 Zrotation Yrotation Xrotation
									End Site
									{
										OFFSET -0.67182 -0.00000 0.67182
									}
								}
							}
						}
					}
				}
			}
		}
	}
}
MOTION
Frames: 15
Frame Time: .0083333
0.5857 18.1259 -2.8817 0 0 0 0 0 0 -21 0 0 0 0 0 0 0 0 0 0 0 0 0 0 21 0 0 0 0 0 0 0 0 0 0 0 0 0 0 0 0 0 0 0 0 0 0 -16 0 0 21 0 0 11 0 0 0 -8 0 0 0 0 0 0 0 0 0 0 0 0 0 0 0 0 0 0 0 0 8 0 0 0 0 0 0 0 0 0 0 0 0 0 0 0 0 0
0.5857 18.1259 -2.8817 -0.6651 -3.0839 9.1314 0.0000 0.0000 0.0000 -20.3309 -1.8960 -12.9292 1.3065 7.2407 20.4305 0.4555 -6.1355 -12.1195 0.0991 -2.0301 -5.5889 0.0000 0.0000 0.0000 20.8149 4.2146 -13.9557 -1.9939 -8.8533 25.3376 -0.5111 -7.1688 -17.9944 -0.0279 -1.0791 2.9663 -7.1007 -0.6468 -7.3902 3.7892 -0.4248 -1.2506 7.9754 -0.2995 2.9272 -0.7738 0.0892 -21.0386 -3.7041 1.2359 18.8901 -0.9872 0.0801 9.4636 -0.0000 0.0000 0.0000 -93.0253 -4.0777 2.3347 10.9955 -18.2813 -1.7745 -0.0000 -0.0000 0.7053 10.6321 33.9676 5.9877 -7.1250 0.0000 -0.0000 -26.7461 62.4207 -11.7698 -0.0000 0.0000 0.0000 82.8587 0.4852 24.0002 -14.3235 23.1953 -2.9543 0.0000 -0.0000 -10.8999 -22.0925 12.3770 -4.9724 7.1250 -0.0000 -0.0000 3.5709 -16.6724 2.4010
0.5831 18.1259 -2.8838 -0.6598 -3.0899 9.1083 0.0000 0.0000 0.0000 -20.3253 -1.8934 -12.9218 1.3109 7.2525 20.4657 0.4573 -6.1376 -12.1422 0.0944 -1.9811 -5.4534 0.0000 0.0000 0.0000 20.8196 4.2312 -13.9488 -1.9981 -8.8621 25.3649 -0.5071 -7.2054 -17.9805 -0.0267 -1.0540 2.8975 -7.0087 -0.6363 -7.3614 3.7140 -0.4172 -1.2439 7.8408 -0.2940 2.9156 -0.6869 0.0748 -20.9592 -3.7071 1.1911 18.9873 -1.0093 0.0646 9.4829 0.0000 0.0000 0.0000 -92.8984 -4.0508 2.2775 10.9375 -18.1924 -1.7564 -0.0000 -0.0000 0.7647 10.3638 33.9296 5.8285 -7.1250 0.0000 -0.0000 -26.9896 62.3193 -11.8209 0.0000 0.0000 0.0000 82.9290 0.4174 24.1276 -14.3514 23.2349 -2.9653 0.0000 -0.0000 -11.0822 -22.1344 12.1207 -4.8817 7.1250 -0.0000 -0.0000 3.5313 -16.9423 2.3535
0.5802 18.1254 -2.8846 -0.5961 -3.1031 9.1077 0.0000 0.0000 0.0000 -20.3864 -1.8839 -12.9130 1.3108 7.2521 20.4646 0.4563 -6.1460 -12.1303 0.0881 -1.9144 -5.2691 0.0000 0.0000 0.0000 20.7536 4.2157 -13.9821 -2.0025 -8.8712 25.3932 -0.5070 -7.1772 -17.9541 -0.0252 -1.0239 2.8146 -7.0270 -0.6450 -7.3858 3.6638 -0.4239 -1.2038 7.7968 -0.3012 2.9723 -0.5903 0.0831 -20.9296 -3.7540 1.1826 18.9932 -1.0427 0.0625 9.4802 0.0000 -0.0000 0.0000 -92.8441 -4.1077 2.2727 10.9205 -18.1663 -1.7511 -0.0000 -0.0000 0.7294 10.2128 34.2599 5.7911 -7.1250 0.0000 -0.0000 -27.4852 62.5691 -12.2177 0.0000 -0.0000 0.0000 82.9544 0.4097 24.2078 -14.3854 23.2830 -2.9788 0.0000 -0.0000 -11.2364 -22.1805 11.9444 -4.8231 7.1250 -0.0000 -0.0000 3.4921 -17.1265 2.3132
0.5765 18.1249 -2.8841 -0.5561 -3.1319 9.0955 0.0000 0.0000 0.0000 -20.4195 -1.8222 -12.9276 1.3122 7.2560 20.4759 0.4530 -6.1998 -12.0957 0.0805 -1.8297 -5.0352 0.0000 0.0000 0.0000 20.7168 4.1835 -13.9968 -2.0067 -8.8799 25.4204 -0.5111 -7.1263 -17.9572 -0.0244 -1.0088 2.7729 -7.0815 -0.6523 -7.3725 3.6645 -0.4298 -1.1598 7.8291 -0.3081 3.0126 -0.5621 0.0950 -20.9526 -3.8125 1.2023 18.9430 -1.0646 0.0675 9.4678 -0.0000 0.0000 0.0000 -92.8882 -4.1164 2.2615 10.9570 -18.2223 -1.7625 -0.0000 -0.0000 0.7556 10.2640 34.1793 5.8087 -7.1250 0.0000 -0.0000 -27.3484 62.5120 -12.1151 -0.0000 0.0000 0.0000 82.9217 0.4649 24.2231 -14.3654 23.2546 -2.9708 0.0000 -0.0000 -11.2977 -22.1973 11.9851 -4.8432 7.1250 -0.0000 -0.0000 3.4820 -17.0813 2.3099
0.5727 18.1250 -2.8844 -0.5927 -3.1631 9.1097 0.0000 0.0000 0.0000 -20.3678 -1.7887 -12.9458 1.3089 7.2472 20.4497 0.4515 -6.2032 -12.0774 0.0819 -1.8462 -5.0807 0.0000 0.0000 0.0000 20.7655 4.2254 -14.0214 -2.0137 -8.8946 25.4661 -0.5125 -7.1400 -17.9855 -0.0232 -0.9826 2.7009 -7.0923 -0.6588 -7.3683 3.7172 -0.4394 -1.1365 7.8915 -0.3153 3.0370 -0.5745 0.1101 -20.9168 -3.8863 1.2401 18.8503 -1.0820 0.0773 9.4304 -0.0000 0.0000 0.0000 -93.0085 -4.0616 2.2236 10.9979 -18.2851 -1.7753 -0.0000 -0.0000 0.8359 10.1937 33.6164 5.6851 -7.1250 0.0000 -0.0000 -26.8552 62.0022 -11.5560 -0.0000 0.0000 0.0000 82.8317 0.5334 24.2326 -14.3077 23.1729 -2.9481 0.0000 -0.0000 -11.2929 -22.2087 12.1575 -4.9143 7.1250 -0.0000 -0.0000 3.4811 -16.8959 2.3235
0.5688 18.1229 -2.8865 -0.5656 -3.1426 9.1247 0.0000 0.0000 0.0000 -20.3864 -1.7576 -12.9737 1.3048 7.2362 20.4170 0.4500 -6.2276 -12.0610 0.0956 -1.9936 -5.4881 0.0000 0.0000 0.0000 20.7524 4.2227 -14.0609 -2.0192 -8.9060 25.5016 -0.5131 -7.1602 -18.0088 -0.0215 -0.9468 2.6024 -7.1525 -0.6747 -7.3329 3.7422 -0.4591 -1.1374 7.9516 -0.3252 3.0206 -0.6243 0.1226 -20.8695 -3.8631 1.2666 18.8481 -1.0618 0.0892 9.4213 -0.0000 0.0000 0.0000 -93.0828 -4.0322 2.2639 10.9837 -18.2632 -1.7708 -0.0000 -0.0000 0.8529 10.1330 33.6117 5.6501 -7.1250 0.0000 -0.0000 -26.9139 61.9829 -11.5710 -0.0000 0.0000 0.0000 82.7623 0.5527 24.2176 -14.2581 23.1025 -2.9286 0.0000 -0.0000 -11.2726 -22.1482 12.1808 -4.9087 7.1250 -0.0000 -0.0000 3.5242 -16.8768 2.3538
0.5652 18.1203 -2.8888 -0.4299 -3.1052 9.0879 0.0000 0.0000 0.0000 -20.5244 -1.6951 -12.9654 1.3023 7.2295 20.3972 0.4476 -6.3316 -12.0446 0.0953 -1.9906 -5.4798 0.0000 0.0000 0.0000 20.6213 4.1621 -14.0600 -2.0227 -8.9131 25.5239 -0.5171 -7.1398 -18.0369 -0.0210 -0.9357 2.5719 -7.3138 -0.6985 -7.2435 3.7344 -0.4834 -1.1235 8.0345 -0.3383 2.9909 -0.6787 0.1351 -20.8474 -3.8356 1.2949 18.8633 -1.0394 0.1015 9.4228 0.0000 0.0000 0.0000 -93.1249 -4.0281 2.3797 10.9715 -18.2446 -1.7670 -0.0000 -0.0000 0.7847 10.2158 33.8281 5.7290 -7.1250 0.0000 -0.0000 -27.0428 62.1932 -11.7654 0.0000 0.0000 0.0000 82.6946 0.5742 24.1978 -14.2049 23.0268 -2.9078 0.0000 -0.0000 -11.2344 -22.0433 12.1248 -4.8611 7.1250 -0.0000 -0.0000 3.5949 -16.9467 2.3957
0.5627 18.1225 -2.8891 -0.4064 -3.1198 9.1025 0.0000 0.0000 0.0000 -20.5409 -1.6550 -12.9712 1.2985 7.2193 20.3668 0.4461 -6.3943 -12.0348 0.0752 -1.7696 -4.8693 0.0000 0.0000 0.0000 20.5963 4.1965 -14.0899 -2.0269 -8.9220 25.5516 -0.5205 -7.1282 -18.0648 -0.0184 -0.8755 2.4063 -7.3406 -0.6962 -7.2549 3.7361 -0.4773 -1.0986 8.0528 -0.3379 3.0224 -0.6270 0.1417 -20.8362 -3.9271 1.3092 18.8729 -1.0777 0.1012 9.4257 0.0000 -0.0000 0.0000 -93.1599 -4.0699 2.3039 10.9543 -18.2182 -1.7616 -0.0000 -0.0000 0.8965 10.2156 33.8068 5.7258 -7.1250 0.0000 -0.0000 -27.0216 62.1745 -11.7435 0.0000 -0.0000 0.0000 82.6547 0.6192 24.1535 -14.1466 22.9439 -2.8850 0.0000 -0.0000 -11.1797 -21.9792 12.2071 -4.8778 7.1250 -0.0000 -0.0000 3.6427 -16.8649 2.4342
0.5602 18.1250 -2.8884 -0.4759 -3.1473 9.1667 0.0000 0.0000 0.0000 -20.4557 -1.7456 -12.9756 1.2956 7.2118 20.3443 0.4498 -6.3058 -12.0688 0.0692 -1.6977 -4.6709 0.0000 0.0000 0.0000 20.6714 4.2382 -14.1534 -2.0283 -8.9248 25.5605 -0.5198 -7.1316 -18.0598 -0.0152 -0.7950 2.1849 -7.2216 -0.6730 -7.2945 3.7164 -0.4525 -1.1011 7.9646 -0.3246 3.0362 -0.5295 0.1361 -20.8727 -3.9914 1.2910 18.9861 -1.1199 0.0902 9.4725 0.0000 -0.0000 0.0000 -93.1353 -4.0986 2.0922 10.9169 -18.1608 -1.7499 -0.0000 -0.0000 1.1850 10.1027 33.6804 5.6430 -7.1250 0.0000 -0.0000 -27.0137 62.0355 -11.6510 0.0000 -0.0000 0.0000 82.7103 0.6291 24.0493 -14.0928 22.8672 -2.8641 0.0000 -0.0000 -11.0573 -21.9989 12.2965 -4.9177 7.1250 -0.0000 -0.0000 3.6327 -16.7676 2.4352
0.5569 18.1239 -2.8879 -0.4463 -3.1703 9.1921 0.0000 0.0000 0.0000 -20.4750 -1.9544 -12.9273 1.2977 7.2172 20.3604 0.4568 -6.1007 -12.1310 0.0781 -1.8027 -4.9606 0.0000 0.0000 0.0000 20.6467 4.2553 -14.1623 -2.0243 -8.9165 25.5346 -0.5226 -7.0891 -18.0554 -0.0203 -0.9200 2.5286 -7.2204 -0.6555 -7.2592 3.6854 -0.4307 -1.1330 7.9321 -0.3096 2.9784 -0.5592 0.1350 -20.8503 -3.9219 1.2871 19.1121 -1.0923 0.0926 9.5118 -0.0000 0.0000 0.0000 -93.1262 -4.0307 2.0823 10.8937 -18.1252 -1.7427 -0.0000 -0.0000 1.3405 10.1037 33.6112 5.6334 -7.1250 0.0000 -0.0000 -26.9442 61.9751 -11.5801 -0.0000 0.0000 0.0000 82.7407 0.5537 23.9623 -14.0545 22.8126 -2.8492 0.0000 -0.0000 -10.9273 -22.0529 12.3470 -4.9508 7.1250 -0.0000 -0.0000 3.5972 -16.7083 2.4159
0.5528 18.1220 -2.8873 -0.4052 -3.1548 9.1890 0.0000 0.0000 0.0000 -20.4988 -2.0522 -12.9033 1.3009 7.2259 20.3865 0.4575 -6.0122 -12.1302 0.0872 -1.9051 -5.2435 0.0000 0.0000 0.0000 20.6221 4.3075 -14.1170 -2.0199 -8.9073 25.5058 -0.5227 -7.1300 -18.0918 -0.0250 -1.0213 2.8073 -7.2715 -0.6403 -7.2179 3.6795 -0.4090 -1.1555 7.9573 -0.2962 2.9278 -0.6768 0.1336 -20.7612 -3.7947 1.2906 19.1136 -1.0278 0.1013 9.4946 -0.0000 0.0000 0.0000 -93.1437 -3.9310 2.3474 10.8959 -18.1285 -1.7434 -0.0000 -0.0000 1.2999 10.1173 33.6804 5.6513 -7.1250 0.0000 -0.0000 -26.9985 62.0391 -11.6462 -0.0000 0.0000 0.0000 82.7148 0.4463 23.8924 -14.0406 22.7927 -2.8438 0.0000 -0.0000 -10.8958 -22.0350 12.4454 -4.9850 7.1250 -0.0000 -0.0000 3.6137 -16.6050 2.4352
0.5487 18.1214 -2.8867 -0.4707 -3.0980 9.1804 0.0000 0.0000 0.0000 -20.4055 -2.0620 -12.9088 1.3017 7.2279 20.3924 0.4551 -6.0225 -12.1005 0.0961 -1.9991 -5.5032 0.0000 0.0000 0.0000 20.7269 4.3284 -14.0671 -2.0171 -8.9015 25.4877 -0.5114 -7.2900 -18.1024 -0.0202 -0.9172 2.5211 -7.2073 -0.6308 -7.2013 3.7025 -0.4027 -1.1203 7.9455 -0.2949 2.9541 -0.7675 0.1276 -20.7859 -3.6936 1.2855 19.0567 -0.9780 0.1048 9.4776 -0.0000 0.0000 0.0000 -93.1533 -3.9485 2.5356 10.9055 -18.1433 -1.7464 -0.0000 -0.0000 1.2448 10.0579 33.7147 5.6227 -7.1250 0.0000 -0.0000 -27.0947 62.0543 -11.7009 -0.0000 0.0000 0.0000 82.6953 0.4476 23.8629 -14.0359 22.7860 -2.8420 0.0000 -0.0000 -10.9455 -21.9545 12.4256 -4.9572 7.1250 -0.0000 -0.0000 3.6687 -16.6339 2.4701
0.5454 18.1223 -2.8876 -0.5027 -3.0641 9.1724 0.0000 0.0000 0.0000 -20.3561 -2.1326 -12.8958 1.3023 7.2295 20.3970 0.4566 -5.9758 -12.1141 0.0963 -2.0012 -5.5090 0.0000 0.0000 0.0000 20.7819 4.3163 -14.0475 -2.0140 -8.8951 25.4678 -0.5020 -7.3503 -18.0478 -0.0200 -0.9128 2.5089 -7.1850 -0.6339 -7.1814 3.7330 -0.4103 -1.0540 7.9651 -0.3038 3.0142 -0.8338 0.1214 -20.9679 -3.6639 1.2986 19.1511 -0.9562 0.1059 9.5432 -0.0000 0.0000 0.0000 -93.1850 -4.0372 2.6586 10.9208 -18.1667 -1.7511 -0.0000 -0.0000 1.1836 10.0485 33.6941 5.6143 -7.1250 0.0000 -0.0000 -27.0840 62.0338 -11.6827 -0.0000 0.0000 0.0000 82.6622 0.5213 23.8655 -14.0363 22.7865 -2.8421 0.0000 -0.0000 -10.9294 -21.8786 12.2095 -4.8542 7.1250 -0.0000 -0.0000 3.7128 -16.8720 2.4807
0.5422 18.1235 -2.8887 -0.4686 -3.0345 9.1355 0.0000 0.0000 0.0000 -20.3716 -2.2425 -12.8184 1.3050 7.2366 20.4183 0.4604 -5.9117 -12.1551 0.0802 -1.8264 -5.0260 0.0000 0.0000 0.0000 20.7589 4.2861 -14.0149 -2.0101 -8.8870 25.4426 -0.5026 -7.3248 -18.0323 -0.0229 -0.9761 2.6831 -7.2422 -0.6394 -7.1109 3.7493 -0.4176 -1.0046 8.0153 -0.3107 3.0284 -0.8220 0.0995 -21.1173 -3.7747 1.3008 19.3194 -0.9984 0.0903 9.6309 0.0000 -0.0000 0.0000 -93.2198 -4.0716 2.8521 10.9402 -18.1965 -1.7572 -0.0000 -0.0000 1.0838 10.0231 33.5200 5.5745 -7.1250 0.0000 -0.0000 -26.9384 61.8751 -11.5136 0.0000 -0.0000 0.0000 82.6304 0.5601 23.8139 -14.0227 22.7672 -2.8369 0.0000 -0.0000 -10.8667 -21.7874 12.0776 -4.7808 7.1250 -0.0000 -0.0000 3.7711 -17.0212 2.5075
